<svg width="39" height="42" viewBox="0 0 39 42" fill="none" xmlns="http://www.w3.org/2000/svg">
<path d="M16.24 40.078C16.24 40.5807 15.0607 40.9867 12.702 41.296C10.3433 41.6053 7.96533 41.76 5.56799 41.76C3.20933 41.76 1.68199 41.6247 0.985993 41.354C0.32866 41.0833 -7.16001e-06 40.658 -7.16001e-06 40.078V2.78401C-7.16001e-06 1.77867 1.25666 1.06334 3.76999 0.638007C6.32199 0.212674 9.53133 8.10623e-06 13.398 8.10623e-06C17.2647 8.10623e-06 19.7587 0.0193412 20.88 0.0580074C22.04 0.0580074 23.3933 0.116008 24.94 0.232009C26.4867 0.348007 27.7047 0.54134 28.594 0.812008C29.522 1.08267 30.5273 1.43067 31.61 1.85601C32.7313 2.28134 33.6013 2.84201 34.22 3.53801C34.8387 4.19534 35.438 4.98801 36.018 5.91601C37.062 7.57867 37.584 9.95667 37.584 13.05C37.584 16.1047 37.062 18.6953 36.018 20.822C35.0127 22.91 33.6593 24.4953 31.958 25.578C36.4047 32.5767 38.628 37.0233 38.628 38.918C38.628 40.8127 34.8193 41.76 27.202 41.76C24.998 41.76 23.4707 41.6633 22.62 41.47C21.7693 41.2767 21.228 40.8513 20.996 40.194L17.226 28.246L16.24 28.188V40.078ZM16.24 19.256H17.748C19.9907 19.256 21.112 17.516 21.112 14.036C21.112 12.2573 20.8027 11.0007 20.184 10.266C19.604 9.53134 18.9273 9.16401 18.154 9.16401H16.24V19.256Z" fill="black"/>
</svg>
