<svg width="213" height="28" viewBox="0 0 213 28" fill="none" xmlns="http://www.w3.org/2000/svg">
<path d="M10.64 26.258C10.64 26.5873 9.86733 26.8533 8.322 27.056C6.77666 27.2587 5.21866 27.36 3.648 27.36C2.10266 27.36 1.102 27.2713 0.645996 27.094C0.215329 26.9167 -4.16487e-06 26.638 -4.16487e-06 26.258V1.824C-4.16487e-06 1.16533 0.823329 0.696666 2.47 0.417999C4.142 0.139333 6.24466 -4.76837e-07 8.778 -4.76837e-07C11.3113 -4.76837e-07 12.9453 0.012666 13.68 0.037999C14.44 0.037999 15.3267 0.0759993 16.34 0.152C17.3533 0.227999 18.1513 0.354665 18.734 0.531999C19.342 0.709332 20.0007 0.937332 20.71 1.216C21.4447 1.49467 22.0147 1.862 22.42 2.318C22.8253 2.74867 23.218 3.268 23.598 3.876C24.282 4.96533 24.624 6.52333 24.624 8.55C24.624 10.5513 24.282 12.2487 23.598 13.642C22.9393 15.01 22.0527 16.0487 20.938 16.758C23.8513 21.3433 25.308 24.2567 25.308 25.498C25.308 26.7393 22.8127 27.36 17.822 27.36C16.378 27.36 15.3773 27.2967 14.82 27.17C14.2627 27.0433 13.908 26.7647 13.756 26.334L11.286 18.506L10.64 18.468V26.258ZM10.64 12.616H11.628C13.0973 12.616 13.832 11.476 13.832 9.196C13.832 8.03067 13.6293 7.20733 13.224 6.726C12.844 6.24467 12.4007 6.004 11.894 6.004H10.64V12.616ZM37.8032 26.448C37.8032 26.7267 37.0305 26.9547 35.4852 27.132C33.9398 27.284 32.3818 27.36 30.8112 27.36C29.2658 27.36 28.2778 27.2967 27.8472 27.17C27.4165 27.018 27.2012 26.7773 27.2012 26.448V2.812C27.2012 2.25467 27.9358 1.71 29.4052 1.178C30.8745 0.620667 32.5212 0.342 34.3452 0.342C35.9665 0.342 37.0305 0.684 37.5372 1.368C37.7145 1.62133 37.8032 1.87467 37.8032 2.128V26.448ZM61.4534 8.094C61.4534 8.55 60.7821 9.60133 59.4394 11.248C58.0968 12.8947 56.0828 15.124 53.3974 17.936H61.4154C61.6941 17.936 61.9221 18.316 62.0994 19.076C62.3021 19.8107 62.4034 20.862 62.4034 22.23C62.4034 23.5727 62.2388 24.7633 61.9094 25.802C61.6054 26.8407 61.1874 27.36 60.6554 27.36H42.1494C41.4148 27.36 40.8828 26.6253 40.5534 25.156C40.2494 23.6867 40.0974 22.0907 40.0974 20.368C40.0974 19.988 40.8068 18.9493 42.2254 17.252C43.6441 15.5547 45.7848 13.186 48.6474 10.146H41.2754C40.5914 10.146 40.2494 9.044 40.2494 6.84C40.2494 5.29467 40.4141 3.838 40.7434 2.47C41.0728 1.07667 41.4908 0.379999 41.9974 0.379999H59.5154C60.8074 0.379999 61.4534 2.95133 61.4534 8.094ZM83.9476 27.36H67.8356C66.5943 27.36 65.7583 27.2713 65.3276 27.094C64.897 26.9167 64.6816 26.638 64.6816 26.258V2.204C64.6816 1.54533 64.973 1.07667 65.5556 0.797998C66.1636 0.519332 67.2403 0.379999 68.7856 0.379999H84.0616C84.5936 0.379999 84.8596 1.26667 84.8596 3.04C84.8596 4.788 84.7456 6.13067 84.5176 7.068C84.2896 7.98 83.9856 8.436 83.6056 8.436C81.959 8.436 79.185 8.27133 75.2836 7.942V10.488C79.033 10.336 81.4776 10.26 82.6176 10.26C83.3016 10.26 83.6436 11.058 83.6436 12.654C83.6436 14.25 83.5043 15.466 83.2256 16.302C82.9723 17.1127 82.6176 17.518 82.1616 17.518L75.2836 17.366V19.798C79.6916 19.4687 82.7316 19.304 84.4036 19.304C84.9356 19.304 85.2016 20.1907 85.2016 21.964C85.2016 23.7373 85.0876 25.08 84.8596 25.992C84.6316 26.904 84.3276 27.36 83.9476 27.36ZM98.477 26.258C98.477 26.638 97.6537 26.9167 96.007 27.094C94.3857 27.2713 92.8403 27.36 91.371 27.36C89.9017 27.36 88.9517 27.2713 88.521 27.094C88.0903 26.9167 87.875 26.638 87.875 26.258V2.166C87.875 1.50733 88.2043 1.03867 88.863 0.759999C89.5217 0.481333 90.763 0.342 92.587 0.342H106.685C107.217 0.342 107.483 1.30467 107.483 3.23C107.483 5.13 107.356 6.58667 107.103 7.6C106.875 8.588 106.571 9.082 106.191 9.082L98.477 8.702V11.286C101.846 11.134 104.101 11.058 105.241 11.058C105.621 11.058 105.874 11.2607 106.001 11.666C106.153 12.0713 106.229 12.8567 106.229 14.022C106.229 15.162 106.102 16.264 105.849 17.328C105.596 18.3667 105.241 18.886 104.785 18.886L98.477 18.658V26.258ZM122.985 27.702C120.882 27.702 119.071 27.512 117.551 27.132C116.056 26.7267 114.675 26.0173 113.409 25.004C110.85 23.0027 109.571 19.1647 109.571 13.49C109.571 11.1087 109.913 9.03133 110.597 7.258C111.306 5.48467 112.281 4.07867 113.523 3.04C115.955 1.01333 119.109 -4.76837e-07 122.985 -4.76837e-07C124.986 -4.76837e-07 126.721 0.177333 128.191 0.531999C129.685 0.886666 131.091 1.53267 132.409 2.47C135.069 4.39533 136.399 8.06867 136.399 13.49C136.399 18.354 135.195 21.9387 132.789 24.244C130.382 26.5493 127.114 27.702 122.985 27.702ZM121.731 21.204C122.035 21.5587 122.453 21.736 122.985 21.736C123.517 21.736 123.935 21.5587 124.239 21.204C124.543 20.824 124.796 20.0387 124.999 18.848C125.201 17.632 125.303 15.9473 125.303 13.794C125.303 11.6407 125.201 9.98133 124.999 8.816C124.796 7.65067 124.543 6.89067 124.239 6.536C123.935 6.18133 123.517 6.004 122.985 6.004C122.453 6.004 122.035 6.18133 121.731 6.536C121.427 6.89067 121.173 7.65067 120.971 8.816C120.768 9.98133 120.667 11.6407 120.667 13.794C120.667 15.9473 120.768 17.632 120.971 18.848C121.173 20.0387 121.427 20.824 121.731 21.204ZM149.503 26.258C149.503 26.5873 148.731 26.8533 147.185 27.056C145.64 27.2587 144.082 27.36 142.511 27.36C140.966 27.36 139.965 27.2713 139.509 27.094C139.079 26.9167 138.863 26.638 138.863 26.258V1.824C138.863 1.16533 139.687 0.696666 141.333 0.417999C143.005 0.139333 145.108 -4.76837e-07 147.641 -4.76837e-07C150.175 -4.76837e-07 151.809 0.012666 152.543 0.037999C153.303 0.037999 154.19 0.0759993 155.203 0.152C156.217 0.227999 157.015 0.354665 157.597 0.531999C158.205 0.709332 158.864 0.937332 159.573 1.216C160.308 1.49467 160.878 1.862 161.283 2.318C161.689 2.74867 162.081 3.268 162.461 3.876C163.145 4.96533 163.487 6.52333 163.487 8.55C163.487 10.5513 163.145 12.2487 162.461 13.642C161.803 15.01 160.916 16.0487 159.801 16.758C162.715 21.3433 164.171 24.2567 164.171 25.498C164.171 26.7393 161.676 27.36 156.685 27.36C155.241 27.36 154.241 27.2967 153.683 27.17C153.126 27.0433 152.771 26.7647 152.619 26.334L150.149 18.506L149.503 18.468V26.258ZM149.503 12.616H150.491C151.961 12.616 152.695 11.476 152.695 9.196C152.695 8.03067 152.493 7.20733 152.087 6.726C151.707 6.24467 151.264 6.004 150.757 6.004H149.503V12.616ZM174.31 27.664C173.449 27.664 172.651 27.5753 171.916 27.398C171.182 27.2207 170.409 26.8533 169.598 26.296C168.813 25.7133 168.142 24.9533 167.584 24.016C166.318 21.888 165.684 18.6833 165.684 14.402C165.684 12.046 166.001 9.96867 166.634 8.17C167.268 6.37133 168.066 4.978 169.028 3.99C169.991 2.97667 171.144 2.15333 172.486 1.52C173.829 0.886666 175.083 0.481333 176.248 0.304C177.414 0.101333 178.655 -4.76837e-07 179.972 -4.76837e-07C183.012 -4.76837e-07 185.153 0.265999 186.394 0.797998C187.636 1.30467 188.256 2.29267 188.256 3.762C188.256 4.92733 188.041 6.194 187.61 7.562C187.18 8.90467 186.546 9.576 185.71 9.576C185.508 9.576 184.646 9.386 183.126 9.006C181.606 8.60067 180.466 8.398 179.706 8.398C177.528 8.398 176.438 10.2347 176.438 13.908C176.438 15.7573 176.692 17.138 177.198 18.05C177.705 18.9367 178.338 19.4307 179.098 19.532V16.112C179.098 15.4787 179.744 14.896 181.036 14.364C182.328 13.832 183.57 13.566 184.76 13.566C185.951 13.566 186.812 13.642 187.344 13.794C187.902 13.946 188.282 14.1613 188.484 14.44C188.839 14.896 189.016 15.3013 189.016 15.656V26.182C189.016 26.5113 188.345 26.7773 187.002 26.98C185.685 27.1827 184.304 27.284 182.86 27.284C181.442 27.284 180.542 27.2207 180.162 27.094C179.782 26.942 179.567 26.5493 179.516 25.916L179.25 23.674H178.946C178.769 24.7633 178.313 25.7007 177.578 26.486C176.869 27.2713 175.78 27.664 174.31 27.664ZM210.936 27.36H194.824C193.583 27.36 192.747 27.2713 192.316 27.094C191.885 26.9167 191.67 26.638 191.67 26.258V2.204C191.67 1.54533 191.961 1.07667 192.544 0.797998C193.152 0.519332 194.229 0.379999 195.774 0.379999H211.05C211.582 0.379999 211.848 1.26667 211.848 3.04C211.848 4.788 211.734 6.13067 211.506 7.068C211.278 7.98 210.974 8.436 210.594 8.436C208.947 8.436 206.173 8.27133 202.272 7.942V10.488C206.021 10.336 208.466 10.26 209.606 10.26C210.29 10.26 210.632 11.058 210.632 12.654C210.632 14.25 210.493 15.466 210.214 16.302C209.961 17.1127 209.606 17.518 209.15 17.518L202.272 17.366V19.798C206.68 19.4687 209.72 19.304 211.392 19.304C211.924 19.304 212.19 20.1907 212.19 21.964C212.19 23.7373 212.076 25.08 211.848 25.992C211.62 26.904 211.316 27.36 210.936 27.36Z" fill="url(#paint0_linear_4103_4)"/>
<defs>
<linearGradient id="paint0_linear_4103_4" x1="105.98" y1="-9.64" x2="105.98" y2="34.36" gradientUnits="userSpaceOnUse">
<stop stop-color="white"/>
<stop offset="0.5" stop-color="#F5F5F5"/>
<stop offset="1" stop-color="#757575"/>
</linearGradient>
</defs>
</svg>
