<?xml version="1.0" standalone="no"?>
<!DOCTYPE svg PUBLIC "-//W3C//DTD SVG 20010904//EN"
 "http://www.w3.org/TR/2001/REC-SVG-20010904/DTD/svg10.dtd">
<svg version="1.0" xmlns="http://www.w3.org/2000/svg"
 width="1464.000000pt" height="1464.000000pt" viewBox="0 0 1464.000000 1464.000000"
 preserveAspectRatio="xMidYMid meet">
<metadata>
Created by potrace 1.14, written by Peter Selinger 2001-2017
</metadata>
<g transform="translate(0.000000,1464.000000) scale(0.100000,-0.100000)"
fill="#000000" stroke="none">
<path d="M6735 11423 c-526 -41 -843 -101 -1221 -228 -1004 -338 -1669 -990
-1929 -1894 -83 -288 -118 -564 -119 -916 0 -454 63 -807 209 -1171 143 -356
328 -630 612 -904 220 -213 454 -376 751 -522 l142 -70 -33 -47 c-43 -58
-1797 -2576 -1821 -2614 l-18 -27 1054 0 1055 0 804 1167 805 1168 887 3 887
2 0 -1170 0 -1170 980 0 980 0 0 4200 0 4200 -1992 -2 c-1096 -1 -2011 -3
-2033 -5z m2065 -3044 l0 -1460 -932 4 c-1011 4 -1040 6 -1297 63 -476 105
-801 338 -980 698 -61 123 -94 222 -123 369 -30 151 -32 488 -4 642 117 642
568 1025 1321 1119 181 23 148 22 1113 24 l902 2 0 -1461z"/>
</g>
</svg>
